# Blender v2.75 (sub 0) OBJ File: ''
# www.blender.org
o Cylinder
v -1.000000 0.000000 -0.500000
v -1.000000 -0.293893 0.404509
v -1.000000 0.475528 -0.154509
v 1.000000 0.000000 -0.000000
v 0.500000 -0.475528 -0.154508
v 0.500000 0.000000 -0.500000
v -1.000000 -0.475528 -0.154508
v 0.500000 -0.293893 0.404509
v 0.500000 0.293893 0.404508
v -1.000000 0.293893 0.404508
v 0.500000 0.475528 -0.154509
vt 0.117557 0.677723
vt 0.307768 0.938451
vt 0.000000 0.838862
vt 0.502870 0.829729
vt 0.502414 0.993718
vt 0.346766 0.879971
vt 0.600000 0.000000
vt 0.800000 0.000000
vt 0.800000 0.677723
vt 0.658692 0.880837
vt 1.000000 0.000000
vt 1.000000 0.677723
vt 0.599628 0.697326
vt 0.000000 0.000000
vt 0.200000 0.000000
vt 0.200000 0.677723
vt 0.406847 0.696791
vt 0.400000 0.000000
vt 0.400000 0.677723
vt 0.599965 0.677734
vt 0.307768 0.739273
vt 0.117557 1.000000
vt 0.000000 0.677723
vn -1.000000 0.000000 0.000000
vn 0.629000 -0.457000 -0.629000
vn -0.000000 -0.587800 -0.809000
vn 0.629000 -0.739400 0.240200
vn 0.000000 -0.951100 0.309000
vn 0.629000 0.000000 0.777400
vn 0.000000 0.000000 1.000000
vn 0.629000 0.739400 0.240200
vn 0.000000 0.951100 0.309000
vn 0.629000 0.457000 -0.629000
vn -0.000000 0.587800 -0.809000
s 1
f 1/1/1 2/2/1 3/3/1
f 4/4/2 5/5/2 6/6/2
f 6/7/3 5/8/3 7/9/3
f 4/4/4 8/10/4 5/5/4
f 5/8/5 8/11/5 2/12/5
f 4/4/6 9/13/6 8/10/6
f 8/14/7 9/15/7 10/16/7
f 4/4/8 11/17/8 9/13/8
f 9/15/9 11/18/9 3/19/9
f 4/4/10 6/6/10 11/17/10
f 11/18/11 6/7/11 1/20/11
f 2/2/1 1/1/1 7/21/1
f 2/2/1 10/22/1 3/3/1
f 1/20/3 6/7/3 7/9/3
f 7/9/5 5/8/5 2/12/5
f 2/23/7 8/14/7 10/16/7
f 10/16/9 9/15/9 3/19/9
f 3/19/11 11/18/11 1/20/11
